<svg xmlns="http://www.w3.org/2000/svg" width="192" height="192" viewBox="0 0 200 200">
  <defs>
    <linearGradient id="clock" x1="0" y1="0" x2="1" y2="1">
      <stop stop-color="#6366f1" />
      <stop offset="1" stop-color="#8b5cf6" />
    </linearGradient>
    <linearGradient id="center" x1="0" y1="0" x2="1" y2="1">
      <stop stop-color="#f472b6" />
      <stop offset="1" stop-color="#ec4899" />
    </linearGradient>
    <filter id="shadow" x="-20%" y="-20%" width="140%" height="140%">
      <feDropShadow dx="0" dy="2" stdDeviation="4" flood-color="#6366f1" flood-opacity=".3" />
    </filter>
  </defs>

  <circle cx="100" cy="100" r="80" fill="url(#clock)" filter="url(#shadow)" />
  <circle cx="100" cy="100" r="55" fill="#fff" fill-opacity=".95" />

  <g stroke="#e5e7eb" stroke-width="1.5">
    <path d="M100 50v8M100 142v8M50 100h8M142 100h8" />
  </g>
  <g fill="none" stroke-linecap="round">
    <path d="M100 100V68" stroke="#4f46e5" stroke-width="4" />
    <path d="m100 100 28-18" stroke="#6366f1" stroke-width="3" />
  </g>
  <circle cx="100" cy="100" r="5" fill="url(#center)" />

  <g transform="translate(35 35)">
    <circle r="12" fill="#f472b6" />
    <circle cy="-3" r="5" fill="#fff" />
    <ellipse cy="5" rx="6" ry="4" fill="#fff" />
  </g>
  <g transform="translate(165 35)">
    <circle r="12" fill="#34d399" />
    <circle cy="-3" r="5" fill="#fff" />
    <ellipse cy="5" rx="6" ry="4" fill="#fff" />
  </g>
  <g transform="translate(35 165)">
    <circle r="12" fill="#fbbf24" />
    <circle cy="-3" r="5" fill="#fff" />
    <ellipse cy="5" rx="6" ry="4" fill="#fff" />
  </g>
  <g transform="translate(165 165)">
    <circle r="12" fill="#60a5fa" />
    <circle cy="-3" r="5" fill="#fff" />
    <ellipse cy="5" rx="6" ry="4" fill="#fff" />
  </g>
</svg>
