<svg xmlns="http://www.w3.org/2000/svg" viewBox="0 0 16 16" fill="#000000" aria-hidden="true" id="Calendar--Streamline-Heroicons" height="16" width="16">
  <desc>
    Calendar Streamline Icon: https://streamlinehq.com
  </desc>
  <path fill-rule="evenodd" d="M4.5 1.5A0.5 0.5 0 0 1 5 2v1h6V2A0.5 0.5 0 0 1 12 2v1h0.5a2 2 0 0 1 2 2v7.5a2 2 0 0 1 -2 2H3.5a2 2 0 0 1 -2 -2V5a2 2 0 0 1 2 -2H4V2a0.5 0.5 0 0 1 0.5 -0.5Zm9 6a1 1 0 0 0 -1 -1H3.5a1 1 0 0 0 -1 1v5a1 1 0 0 0 1 1h9a1 1 0 0 0 1 -1v-5Z" clip-rule="evenodd" stroke-width="0.6667"></path>
</svg>